<svg version="1.2" baseProfile="tiny-ps" xmlns="http://www.w3.org/2000/svg" viewBox="0 0 634 1191" width="634" height="1191"><title>HCNLogo</title><style>tspan { white-space:pre }.shp0 { fill: #6692af } .shp1 { fill: #ffffff } </style><g ><path class="shp0" d="M299.01 23.25C299.01 24.49 297.66 35.18 296 47C294.34 58.82 291.6 76.15 289.92 85.5C288.23 94.85 283.71 117.57 279.86 136C276.02 154.43 270.45 179.18 267.48 191C264.52 202.82 260.02 219.7 257.49 228.5C254.96 237.3 250.15 253.05 246.8 263.5C243.45 273.95 237.44 291.73 233.45 303C229.47 314.27 223.95 329.13 221.2 336C218.45 342.88 212.73 356.15 208.49 365.5C204.25 374.85 198.07 387.9 194.76 394.5C191.45 401.1 184.88 413.25 180.17 421.5C175.46 429.75 168.61 441 164.97 446.5C161.32 452 154.34 463.02 149.45 471C144.57 478.98 136.8 492.02 132.18 500C127.57 507.98 119.62 523.05 114.52 533.5C109.41 543.95 102.99 557.9 100.23 564.5C97.48 571.1 92.67 584.38 89.55 594C86.43 603.63 82.58 618.02 80.99 626C79.39 633.98 77.56 645.45 76.92 651.5C76.19 658.27 75.97 669.43 76.32 680.5C76.64 690.4 77.61 702.77 78.48 708C79.35 713.23 81.24 722 82.68 727.5C84.11 733 87.73 743.8 90.72 751.5C93.71 759.2 98.21 769.33 100.71 774C103.21 778.67 107.29 785.65 109.77 789.5C112.25 793.35 115.9 798.52 117.88 801C119.86 803.48 125.18 809.77 129.7 815C134.21 820.23 140.72 826.98 144.16 830C147.6 833.02 154.26 838.35 158.96 841.82C163.66 845.3 171.55 850.67 176.5 853.74C181.45 856.82 191.35 862.15 198.5 865.59C205.65 869.03 216 873.42 221.5 875.35C227 877.27 235.33 879.99 240 881.39C244.67 882.79 254.13 885.05 261 886.41C267.88 887.78 280.47 889.64 289 890.55C300.36 891.77 309.31 892.07 322.5 891.67C332.4 891.37 345.45 890.44 351.5 889.6C357.55 888.77 367 887.18 372.5 886.07C378 884.97 386.55 882.89 391.5 881.47C396.45 880.04 406.58 876.61 414 873.85C421.42 871.09 433.13 865.88 440 862.28C446.88 858.68 456.55 853.01 461.5 849.67C466.45 846.33 473.88 841.05 478 837.93C482.13 834.81 489.56 828.04 494.53 822.88C499.5 817.72 506.98 809.23 511.16 804C515.33 798.77 520.83 791.24 523.37 787.25C525.92 783.26 530.09 775.84 532.64 770.75C535.19 765.66 539.4 755.88 542.01 749C544.61 742.13 547.93 731.77 549.39 726C550.84 720.23 552.81 710.55 553.76 704.5C555.01 696.54 555.47 687.69 555.44 672.5C555.4 654.36 555.03 649.39 552.7 636C551.23 627.48 548.64 615.55 546.95 609.5C545.26 603.45 541.93 592.88 539.55 586C537.17 579.13 533.63 569.67 531.69 565C529.74 560.33 526.05 552 523.49 546.5C520.92 541 516.33 531.55 513.28 525.5C510.24 519.45 504.56 508.88 500.68 502C496.79 495.13 490.17 483.88 485.96 477C481.75 470.13 473.58 457.08 467.81 448C462.04 438.92 454.6 426.77 451.27 421C447.94 415.23 440.71 401.5 435.21 390.5C429.71 379.5 422.87 365.1 420.01 358.5C417.14 351.9 413 342 410.81 336.5C408.61 331 403.88 318.4 400.3 308.5C396.72 298.6 390.48 280.38 386.45 268C382.41 255.63 376.42 236.05 373.14 224.5C369.86 212.95 365.31 195.85 363.02 186.5C360.74 177.15 356.17 156.68 352.88 141C349.59 125.32 345.11 102.82 342.91 91C340.72 79.18 337.62 60.28 336.02 49C334.41 37.72 332.89 27.15 332.63 25.5C332.37 23.85 332.37 27.68 332.64 34C332.9 40.32 333.78 54.28 334.58 65C335.39 75.72 336.95 92.15 338.04 101.5C339.14 110.85 341.62 130.2 343.54 144.5C345.47 158.8 348.43 179.05 350.11 189.5C351.8 199.95 355.37 219.07 358.04 232C360.71 244.93 364.97 264.05 367.51 274.5C370.05 284.95 375.05 304.07 378.62 317C382.2 329.93 387.62 348.15 390.67 357.5C393.72 366.85 397.59 378.1 399.27 382.5C400.95 386.9 404.77 396.58 407.77 404C410.76 411.42 416.36 424.48 420.2 433C424.04 441.52 432.3 458.17 438.55 470C444.8 481.83 454.83 501.63 460.85 514C466.86 526.38 474.27 542.8 477.31 550.5C480.34 558.2 484.69 569.9 486.97 576.5C489.26 583.1 492.65 594.13 494.52 601C496.38 607.88 498.92 618.9 500.15 625.5C502 635.45 502.39 641.08 502.41 658.5C502.44 676.39 502.12 680.98 500.27 689.5C499.08 695 496.7 703.33 494.99 708C493.28 712.67 489.3 721.45 486.14 727.5C482.97 733.55 478.42 741.2 476.01 744.5C473.6 747.8 468.67 753.59 465.06 757.38C461.45 761.16 455.58 766.59 452 769.45C448.42 772.31 442.8 776.37 439.5 778.46C436.2 780.56 429.67 784.2 425 786.56C420.33 788.91 414.03 791.81 411 793C407.97 794.18 400.55 796.51 394.5 798.16C388.45 799.81 378.55 802.02 372.5 803.06C366.45 804.11 356.43 805.31 350.24 805.73L338.99 806.5L339 541L419 541L419 489L339 489L339 398L286 398L286 489L206 489L206 541L286 541L286 806C273.99 805.1 266 804.15 260.5 803.31C255 802.47 245.1 800.3 238.5 798.49C231.9 796.68 222.45 793.57 217.5 791.57C212.55 789.58 203.78 785.18 198 781.81C192.22 778.44 184.58 773.33 181 770.46C177.42 767.59 171.09 761.7 166.93 757.37C162.76 753.04 157.38 746.8 154.97 743.5C152.56 740.2 147.86 732.1 144.51 725.5C141.17 718.9 137.21 709.67 135.71 705C134.22 700.33 132.22 693.13 131.27 689C129.92 683.06 129.56 676.72 129.58 658.5C129.6 638.99 129.94 633.76 131.82 624C133.03 617.67 135.18 608.23 136.58 603C137.99 597.77 140.98 587.88 143.23 581C145.47 574.13 150.56 560.4 154.53 550.5C158.5 540.6 167.11 521.7 173.65 508.5C180.2 495.3 191.43 473.02 198.6 459C205.78 444.98 214.69 426.3 218.42 417.5C222.14 408.7 226.99 396.77 229.2 391C231.4 385.23 236.1 371.95 239.64 361.5C243.18 351.05 249.39 330.35 253.44 315.5C257.49 300.65 263.07 279.05 265.83 267.5C268.6 255.95 272.46 238.63 274.41 229C276.36 219.38 279.31 203.4 280.95 193.5C282.6 183.6 285.96 160.65 288.42 142.5C290.88 124.35 293.82 100.95 294.94 90.5C296.06 80.05 297.41 65.2 297.94 57.5C298.47 49.8 299.18 38.44 299.52 32.25C299.86 26.06 299.89 21 299.57 21C299.26 21 299 22.01 299.01 23.25Z" /><path class="shp1" d="M119.67 782.43C120.13 783.21 122.97 786.85 126 790.51C129.03 794.17 138.92 804.24 148 812.89C157.08 821.54 168.1 831.56 172.5 835.16C176.9 838.77 184.21 844.03 188.75 846.86C193.29 849.69 199.81 853.38 203.25 855.06C206.69 856.75 213.55 859.73 218.5 861.68C223.45 863.63 231.78 866.52 237 868.09C242.22 869.66 252.8 872.27 260.5 873.89C268.2 875.51 280.35 877.64 287.5 878.63C295.43 879.73 306.54 880.44 316 880.44C325.46 880.44 336.57 879.73 344.5 878.63C351.65 877.64 363.58 875.56 371 874C378.42 872.44 389 869.82 394.5 868.16C400 866.51 406.3 864.51 408.5 863.71C410.7 862.91 417.67 859.89 424 857C430.33 854.11 439.1 849.47 443.5 846.68C447.9 843.89 455.1 838.68 459.5 835.09C463.9 831.5 471.29 824.95 475.92 820.53C480.56 816.11 488.62 808.23 493.84 803C499.07 797.77 505.52 790.91 508.17 787.75C510.83 784.59 512.79 781.66 512.52 781.25C512.26 780.84 509.51 782.75 506.41 785.5C503.32 788.25 497.57 793.12 493.64 796.33C489.71 799.53 481.1 806.09 474.5 810.89C467.9 815.7 457.1 822.91 450.5 826.91C443.9 830.91 434 836.33 428.5 838.95C423 841.58 415.58 844.88 412 846.29C408.42 847.71 401.45 850.03 396.5 851.46C391.55 852.89 382.1 855.16 375.5 856.5C368.9 857.84 356.97 860.1 349 861.52C341.02 862.93 328.43 864.35 321 864.66C311.11 865.08 304.29 864.78 295.5 863.55C288.9 862.62 276.3 860.55 267.5 858.94C258.7 857.32 247 854.84 241.5 853.42C236 852 226.33 848.79 220 846.29C213.67 843.79 205.13 840.06 201 838C196.88 835.93 189.45 831.87 184.5 828.97C179.55 826.07 170.55 820.28 164.5 816.11C158.45 811.94 149 804.95 143.5 800.58C138 796.22 130.58 790.04 127 786.85C123.42 783.66 120.13 781.04 119.67 781.03C119.21 781.01 119.21 781.64 119.67 782.43Z" /><path class="shp0" d="M303.5 957.38C299.65 958.12 293.8 959.5 290.5 960.47C287.2 961.43 281.8 963.58 278.5 965.24C275.2 966.91 270.03 969.96 267 972.02C263.97 974.08 258.75 978.63 255.4 982.13C252.04 985.63 247.09 991.88 244.39 996C241.69 1000.13 237.98 1007.33 236.13 1012C234.29 1016.67 231.9 1024.55 230.82 1029.5C229.74 1034.45 228.45 1043.67 227.97 1050C227.44 1056.98 227.47 1066.42 228.05 1074C228.58 1080.88 229.93 1090.33 231.04 1095C232.15 1099.67 233.95 1105.86 235.03 1108.75C236.11 1111.64 238.4 1116.81 240.12 1120.25C241.83 1123.69 245.15 1129.2 247.48 1132.5C249.82 1135.8 254.6 1141.2 258.12 1144.51C261.63 1147.81 267.2 1152.17 270.5 1154.19C273.8 1156.22 279.65 1159.06 283.5 1160.51C287.35 1161.96 293.65 1163.83 297.5 1164.66C301.67 1165.57 309.75 1166.19 317.5 1166.2C326.01 1166.22 333.26 1165.64 338.5 1164.53C342.9 1163.6 349.65 1161.53 353.5 1159.95C357.35 1158.36 363.2 1155.32 366.5 1153.17C369.8 1151.03 375.2 1146.61 378.5 1143.35C381.8 1140.08 386.6 1134.28 389.18 1130.46C391.75 1126.63 395.2 1120.35 396.84 1116.5C398.49 1112.65 400.74 1105.9 401.84 1101.5C402.95 1097.1 404 1092.15 404.18 1090.5L404.5 1087.5L378.78 1087.5C374.96 1100.67 371.98 1108.08 369.68 1112.47C367.03 1117.52 363.21 1122.73 359.25 1126.72C354.89 1131.1 350.8 1134.03 345.75 1136.4C341.76 1138.27 336.14 1140.3 333.25 1140.9C330.36 1141.51 324.06 1142 319.25 1142.01C314.44 1142.01 307.8 1141.52 304.5 1140.91C301.2 1140.31 295.35 1138.35 291.5 1136.57C287.65 1134.78 282.25 1131.54 279.5 1129.36C276.75 1127.19 272.4 1122.28 269.84 1118.45C267.27 1114.63 264.19 1109.03 263 1106C261.8 1102.97 259.92 1097.13 258.82 1093C257.32 1087.37 256.69 1081.02 256.3 1067.5C255.96 1056.08 256.2 1046.76 256.94 1042C257.58 1037.88 259.21 1030.9 260.56 1026.5C261.91 1022.1 264.94 1015.17 267.28 1011.11C269.63 1007.05 274.01 1001.24 277.03 998.22C280.04 995.19 284.86 991.2 287.75 989.36C290.64 987.51 296.49 984.79 300.75 983.32C307.44 981.01 310.14 980.64 320.5 980.61C328.82 980.59 334.49 981.11 339 982.31C342.58 983.27 347.97 985.24 351 986.7C354.21 988.25 359.21 992.09 363.01 995.93C366.59 999.54 370.61 1004.75 371.94 1007.5C373.27 1010.25 374.87 1014.53 375.49 1017L376.63 1021.5C395.9 1021.9 401.83 1021.67 402.22 1021.26C402.62 1020.84 402.06 1016.79 400.97 1012.25C399.89 1007.71 397.23 1000.51 395.07 996.25C392.91 991.99 389.26 986.25 386.97 983.5C384.67 980.75 380.25 976.35 377.14 973.72C374.04 971.1 367.9 967.19 363.5 965.03C359.1 962.88 351.67 960.16 347 958.99C341.04 957.49 334.32 956.74 324.5 956.45C315.35 956.19 308.07 956.51 303.5 957.38ZM36.51 961.66C36.01 962.06 35.71 1005.61 35.82 1061.68L36 1161L64 1161L64 1067L167 1067L167 1161L195 1161L194.5 961.5L167.5 961.5L167 1043L64 1043L63.5 961.5C43.26 961.07 36.99 961.26 36.51 961.66ZM437.02 961.23C437 961.38 436.88 1006.39 436.75 1061.25L436.5 1161L463 1161L462.99 999.5C467.19 1005.7 475.36 1018.53 483.85 1032C492.35 1045.47 508.94 1071.8 520.73 1090.5C532.51 1109.2 547.26 1132.6 553.5 1142.5L564.85 1160.5L595 1161L595 961L568.98 961L568.5 1122.71C537.91 1072.95 515.59 1036.67 499.17 1010L469.31 961.5C444.31 961.07 437.04 961.07 437.02 961.23Z" /></g></svg>