<?xml version="1.0" encoding="UTF-8" standalone="no"?>
<svg
   version="1.2"
   viewBox="0 0 634 1191"
   width="634"
   height="1191"
   id="svg56"
   sodipodi:docname="HCNLogo.svg"
   inkscape:version="1.1 (c68e22c387, 2021-05-23)"
   xmlns:inkscape="http://www.inkscape.org/namespaces/inkscape"
   xmlns:sodipodi="http://sodipodi.sourceforge.net/DTD/sodipodi-0.dtd"
   xmlns="http://www.w3.org/2000/svg"
   xmlns:svg="http://www.w3.org/2000/svg"
   xmlns:rdf="http://www.w3.org/1999/02/22-rdf-syntax-ns#"
   xmlns:cc="http://creativecommons.org/ns#"
   xmlns:dc="http://purl.org/dc/elements/1.1/">
  <sodipodi:namedview
     id="namedview10"
     pagecolor="#ffffff"
     bordercolor="#666666"
     borderopacity="1.0"
     inkscape:pageshadow="2"
     inkscape:pageopacity="0.0"
     inkscape:pagecheckerboard="0"
     showgrid="false"
     inkscape:zoom="0.70361041"
     inkscape:cx="317.64737"
     inkscape:cy="596.21062"
     inkscape:window-width="1920"
     inkscape:window-height="1001"
     inkscape:window-x="-9"
     inkscape:window-y="-9"
     inkscape:window-maximized="1"
     inkscape:current-layer="g54" />
  <metadata
     id="metadata62">
    <rdf:RDF>
      <cc:Work
         rdf:about="">
        <dc:format>image/svg+xml</dc:format>
        <dc:type
           rdf:resource="http://purl.org/dc/dcmitype/StillImage" />
        <dc:title>HCNLogo</dc:title>
      </cc:Work>
    </rdf:RDF>
  </metadata>
  <defs
     id="defs60" />
  <title
     id="title44">HCNLogo</title>
  <style
     id="style46">tspan { white-space:pre }.shp0 { fill: #6692af } .shp1 { fill: #ffffff } </style>
  <g
     id="g54">
    <path
       id="path48"
       d="M 299.57031 21 C 299.26031 21 298.99977 22.01 299.00977 23.25 C 299.00977 24.49 297.66 35.18 296 47 C 294.34 58.82 291.59992 76.15 289.91992 85.5 C 288.22992 94.85 283.70938 117.57 279.85938 136 C 276.01937 154.43 270.45047 179.18 267.48047 191 C 264.52047 202.82 260.02023 219.7 257.49023 228.5 C 254.96023 237.3 250.15078 253.05 246.80078 263.5 C 243.45078 273.95 237.43922 291.73 233.44922 303 C 229.46922 314.27 223.94922 329.13 221.19922 336 C 218.44922 342.88 212.73023 356.15 208.49023 365.5 C 204.25023 374.85 198.06977 387.9 194.75977 394.5 C 191.44977 401.1 184.87992 413.25 180.16992 421.5 C 175.45992 429.75 168.6107 441 164.9707 446.5 C 161.3207 452 154.33922 463.02 149.44922 471 C 144.56922 478.98 136.79969 492.02 132.17969 500 C 127.56969 507.98 119.61953 523.05 114.51953 533.5 C 109.40953 543.95 102.99047 557.9 100.23047 564.5 C 97.480469 571.1 92.670781 584.38 89.550781 594 C 86.430781 603.63 82.580234 618.02 80.990234 626 C 79.390234 633.98 77.559922 645.45 76.919922 651.5 C 76.189922 658.27 75.970312 669.43 76.320312 680.5 C 76.640313 690.4 77.610469 702.77 78.480469 708 C 79.350469 713.23 81.239687 722 82.679688 727.5 C 84.109687 733 87.730703 743.8 90.720703 751.5 C 93.710703 759.2 98.210937 769.33 100.71094 774 C 103.21094 778.67 107.28953 785.65 109.76953 789.5 C 112.24953 793.35 115.90086 798.52 117.88086 801 C 119.86086 803.48 125.17922 809.77 129.69922 815 C 134.20922 820.23 140.72016 826.98 144.16016 830 C 147.60016 833.02 154.26094 838.35031 158.96094 841.82031 C 163.66094 845.30031 171.55 850.67023 176.5 853.74023 C 181.45 856.82023 191.35 862.14984 198.5 865.58984 C 205.65 869.02984 216 873.41961 221.5 875.34961 C 227 877.26961 235.33 879.99062 240 881.39062 C 244.67 882.79062 254.13 885.05016 261 886.41016 C 267.88 887.78016 280.47 889.64078 289 890.55078 C 300.36 891.77078 309.31 892.06992 322.5 891.66992 C 332.4 891.36992 345.45 890.43961 351.5 889.59961 C 357.55 888.76961 367 887.18031 372.5 886.07031 C 378 884.97031 386.55 882.8907 391.5 881.4707 C 396.45 880.0407 406.58 876.60961 414 873.84961 C 421.42 871.08961 433.13 865.8793 440 862.2793 C 446.88 858.6793 456.55 853.00992 461.5 849.66992 C 466.45 846.32992 473.88 841.04969 478 837.92969 C 482.13 834.80969 489.5593 828.04086 494.5293 822.88086 C 499.4993 817.72086 506.98016 809.23 511.16016 804 C 515.33016 798.77 520.82914 791.24 523.36914 787.25 C 525.91914 783.26 530.09063 775.84 532.64062 770.75 C 535.19063 765.66 539.39977 755.88 542.00977 749 C 544.60977 742.13 547.93062 731.77 549.39062 726 C 550.84063 720.23 552.80977 710.55 553.75977 704.5 C 555.00977 696.54 555.46945 687.69 555.43945 672.5 C 555.39945 654.36 555.02922 649.39 552.69922 636 C 551.22922 627.48 548.63922 615.55 546.94922 609.5 C 545.25922 603.45 541.93078 592.88 539.55078 586 C 537.17078 579.13 533.62945 569.67 531.68945 565 C 529.73945 560.33 526.05023 552 523.49023 546.5 C 520.92023 541 516.3293 531.55 513.2793 525.5 C 510.2393 519.45 504.55969 508.88 500.67969 502 C 496.78969 495.13 490.17094 483.88 485.96094 477 C 481.75094 470.13 473.58055 457.08 467.81055 448 C 462.04055 438.92 454.59953 426.77 451.26953 421 C 447.93953 415.23 440.71094 401.5 435.21094 390.5 C 429.71094 379.5 422.86977 365.1 420.00977 358.5 C 417.13977 351.9 413.00055 342 410.81055 336.5 C 408.61055 331 403.88078 318.4 400.30078 308.5 C 396.72078 298.6 390.47922 280.38 386.44922 268 C 382.40922 255.63 376.42062 236.05 373.14062 224.5 C 369.86063 212.95 365.30953 195.85 363.01953 186.5 C 360.73953 177.15 356.17086 156.68 352.88086 141 C 349.59086 125.32 345.11016 102.82 342.91016 91 C 340.72016 79.18 337.61953 60.28 336.01953 49 C 334.40953 37.72 332.89086 27.15 332.63086 25.5 C 332.37086 23.85 332.37063 27.68 332.64062 34 C 332.90062 40.32 333.78008 54.28 334.58008 65 C 335.39008 75.72 336.94906 92.15 338.03906 101.5 C 339.13906 110.85 341.61906 130.2 343.53906 144.5 C 345.46906 158.8 348.42938 179.05 350.10938 189.5 C 351.79937 199.95 355.36906 219.07 358.03906 232 C 360.70906 244.93 364.96977 264.05 367.50977 274.5 C 370.04977 284.95 375.04914 304.07 378.61914 317 C 382.19914 329.93 387.61992 348.15 390.66992 357.5 C 393.71992 366.85 397.58953 378.1 399.26953 382.5 C 400.94953 386.9 404.76953 396.58 407.76953 404 C 410.75953 411.42 416.35922 424.48 420.19922 433 C 424.03922 441.52 432.30078 458.17 438.55078 470 C 444.80078 481.83 454.82961 501.63 460.84961 514 C 466.85961 526.38 474.27055 542.8 477.31055 550.5 C 480.34055 558.2 484.6907 569.9 486.9707 576.5 C 489.2607 583.1 492.64953 594.13 494.51953 601 C 496.37953 607.88 498.92039 618.9 500.15039 625.5 C 502.00039 635.45 502.39016 641.08 502.41016 658.5 C 502.44016 676.39 502.11953 680.98 500.26953 689.5 C 499.07953 695 496.70023 703.33 494.99023 708 C 493.28023 712.67 489.30062 721.45 486.14062 727.5 C 482.97063 733.55 478.41977 741.2 476.00977 744.5 C 473.59977 747.8 468.67055 753.59086 465.06055 757.38086 C 461.45055 761.16086 455.58 766.58922 452 769.44922 C 448.42 772.30922 442.8 776.37094 439.5 778.46094 C 436.2 780.56094 429.67 784.20055 425 786.56055 C 420.33 788.91055 414.03 791.81 411 793 C 407.97 794.18 400.55 796.51016 394.5 798.16016 C 388.45 799.81016 378.55 802.02055 372.5 803.06055 C 366.45 804.11055 356.43023 805.31047 350.24023 805.73047 L 338.99023 806.5 L 339 541 L 419 541 L 419 489 L 339 489 L 339 398 L 286 398 L 286 489 L 206 489 L 206 541 L 286 541 L 286 806 C 273.99 805.1 266 804.15055 260.5 803.31055 C 255 802.47055 245.1 800.30023 238.5 798.49023 C 231.9 796.68023 222.45 793.57031 217.5 791.57031 C 212.55 789.58031 203.78 785.18055 198 781.81055 C 192.22 778.44055 184.58 773.33094 181 770.46094 C 177.42 767.59094 171.08969 761.69914 166.92969 757.36914 C 162.75969 753.03914 157.3807 746.8 154.9707 743.5 C 152.5607 740.2 147.85977 732.1 144.50977 725.5 C 141.16977 718.9 137.21094 709.67 135.71094 705 C 134.22094 700.33 132.21953 693.13 131.26953 689 C 129.91953 683.06 129.56008 676.72 129.58008 658.5 C 129.60008 638.99 129.94031 633.76 131.82031 624 C 133.03031 617.67 135.18008 608.23 136.58008 603 C 137.99008 597.77 140.98047 587.88 143.23047 581 C 145.47047 574.13 150.5593 560.4 154.5293 550.5 C 158.4993 540.6 167.11039 521.7 173.65039 508.5 C 180.20039 495.3 191.42961 473.02 198.59961 459 C 205.77961 444.98 214.68992 426.3 218.41992 417.5 C 222.13992 408.7 226.98922 396.77 229.19922 391 C 231.39922 385.23 236.10062 371.95 239.64062 361.5 C 243.18063 351.05 249.38945 330.35 253.43945 315.5 C 257.48945 300.65 263.07008 279.05 265.83008 267.5 C 268.60008 255.95 272.46016 238.63 274.41016 229 C 276.36016 219.38 279.30922 203.4 280.94922 193.5 C 282.59922 183.6 285.95992 160.65 288.41992 142.5 C 290.87992 124.35 293.81945 100.95 294.93945 90.5 C 296.05945 80.05 297.40945 65.2 297.93945 57.5 C 298.46945 49.8 299.17953 38.44 299.51953 32.25 C 299.85953 26.06 299.89031 21 299.57031 21 z M 119.66992 781.0293 C 120.12992 781.0393 123.42 783.65961 127 786.84961 C 130.58 790.03961 138 796.22008 143.5 800.58008 C 149 804.95008 158.45 811.93938 164.5 816.10938 C 170.55 820.27937 179.55 826.0707 184.5 828.9707 C 189.45 831.8707 196.88 835.93 201 838 C 205.13 840.06 213.67 843.78906 220 846.28906 C 226.33 848.78906 236 851.99992 241.5 853.41992 C 247 854.83992 258.7 857.31945 267.5 858.93945 C 276.3 860.54945 288.9 862.62078 295.5 863.55078 C 304.29 864.78078 311.11 865.08016 321 864.66016 C 328.43 864.35016 341.02 862.92953 349 861.51953 C 356.97 860.09953 368.9 857.84 375.5 856.5 C 382.1 855.16 391.55 852.89094 396.5 851.46094 C 401.45 850.03094 408.42 847.70906 412 846.28906 C 415.58 844.87906 423 841.57922 428.5 838.94922 C 434 836.32922 443.9 830.91016 450.5 826.91016 C 457.1 822.91016 467.9 815.70063 474.5 810.89062 C 481.1 806.09063 489.71062 799.53008 493.64062 796.33008 C 497.57062 793.12008 503.32016 788.25 506.41016 785.5 C 509.51016 782.75 512.25953 780.84 512.51953 781.25 C 512.78953 781.66 510.82992 784.59 508.16992 787.75 C 505.51992 790.91 499.06984 797.77 493.83984 803 C 488.61984 808.23 480.55992 816.1093 475.91992 820.5293 C 471.28992 824.9493 463.9 831.49984 459.5 835.08984 C 455.1 838.67984 447.9 843.88969 443.5 846.67969 C 439.1 849.46969 430.33 854.11 424 857 C 417.67 859.89 410.7 862.91094 408.5 863.71094 C 406.3 864.51094 400 866.51016 394.5 868.16016 C 389 869.82016 378.42 872.44 371 874 C 363.58 875.56 351.65 877.64086 344.5 878.63086 C 336.57 879.73086 325.46 880.43945 316 880.43945 C 306.54 880.43945 295.43 879.73086 287.5 878.63086 C 280.35 877.64086 268.2 875.51063 260.5 873.89062 C 252.8 872.27062 242.22 869.65984 237 868.08984 C 231.78 866.51984 223.45 863.62969 218.5 861.67969 C 213.55 859.72969 206.69 856.75055 203.25 855.06055 C 199.81 853.38055 193.29 849.68938 188.75 846.85938 C 184.21 844.02938 176.9 838.77016 172.5 835.16016 C 168.1 831.56016 157.08 821.54062 148 812.89062 C 138.92 804.24062 129.03 794.16977 126 790.50977 C 122.97 786.84977 120.12992 783.20969 119.66992 782.42969 C 119.20992 781.63969 119.20992 781.0093 119.66992 781.0293 z "
       style="fill:#54a3db;fill-opacity:1" />
    <path
       class="shp0"
       d="M303.5 957.38C299.65 958.12 293.8 959.5 290.5 960.47C287.2 961.43 281.8 963.58 278.5 965.24C275.2 966.91 270.03 969.96 267 972.02C263.97 974.08 258.75 978.63 255.4 982.13C252.04 985.63 247.09 991.88 244.39 996C241.69 1000.13 237.98 1007.33 236.13 1012C234.29 1016.67 231.9 1024.55 230.82 1029.5C229.74 1034.45 228.45 1043.67 227.97 1050C227.44 1056.98 227.47 1066.42 228.05 1074C228.58 1080.88 229.93 1090.33 231.04 1095C232.15 1099.67 233.95 1105.86 235.03 1108.75C236.11 1111.64 238.4 1116.81 240.12 1120.25C241.83 1123.69 245.15 1129.2 247.48 1132.5C249.82 1135.8 254.6 1141.2 258.12 1144.51C261.63 1147.81 267.2 1152.17 270.5 1154.19C273.8 1156.22 279.65 1159.06 283.5 1160.51C287.35 1161.96 293.65 1163.83 297.5 1164.66C301.67 1165.57 309.75 1166.19 317.5 1166.2C326.01 1166.22 333.26 1165.64 338.5 1164.53C342.9 1163.6 349.65 1161.53 353.5 1159.95C357.35 1158.36 363.2 1155.32 366.5 1153.17C369.8 1151.03 375.2 1146.61 378.5 1143.35C381.8 1140.08 386.6 1134.28 389.18 1130.46C391.75 1126.63 395.2 1120.35 396.84 1116.5C398.49 1112.65 400.74 1105.9 401.84 1101.5C402.95 1097.1 404 1092.15 404.18 1090.5L404.5 1087.5L378.78 1087.5C374.96 1100.67 371.98 1108.08 369.68 1112.47C367.03 1117.52 363.21 1122.73 359.25 1126.72C354.89 1131.1 350.8 1134.03 345.75 1136.4C341.76 1138.27 336.14 1140.3 333.25 1140.9C330.36 1141.51 324.06 1142 319.25 1142.01C314.44 1142.01 307.8 1141.52 304.5 1140.91C301.2 1140.31 295.35 1138.35 291.5 1136.57C287.65 1134.78 282.25 1131.54 279.5 1129.36C276.75 1127.19 272.4 1122.28 269.84 1118.45C267.27 1114.63 264.19 1109.03 263 1106C261.8 1102.97 259.92 1097.13 258.82 1093C257.32 1087.37 256.69 1081.02 256.3 1067.5C255.96 1056.08 256.2 1046.76 256.94 1042C257.58 1037.88 259.21 1030.9 260.56 1026.5C261.91 1022.1 264.94 1015.17 267.28 1011.11C269.63 1007.05 274.01 1001.24 277.03 998.22C280.04 995.19 284.86 991.2 287.75 989.36C290.64 987.51 296.49 984.79 300.75 983.32C307.44 981.01 310.14 980.64 320.5 980.61C328.82 980.59 334.49 981.11 339 982.31C342.58 983.27 347.97 985.24 351 986.7C354.21 988.25 359.21 992.09 363.01 995.93C366.59 999.54 370.61 1004.75 371.94 1007.5C373.27 1010.25 374.87 1014.53 375.49 1017L376.63 1021.5C395.9 1021.9 401.83 1021.67 402.22 1021.26C402.62 1020.84 402.06 1016.79 400.97 1012.25C399.89 1007.71 397.23 1000.51 395.07 996.25C392.91 991.99 389.26 986.25 386.97 983.5C384.67 980.75 380.25 976.35 377.14 973.72C374.04 971.1 367.9 967.19 363.5 965.03C359.1 962.88 351.67 960.16 347 958.99C341.04 957.49 334.32 956.74 324.5 956.45C315.35 956.19 308.07 956.51 303.5 957.38ZM36.51 961.66C36.01 962.06 35.71 1005.61 35.82 1061.68L36 1161L64 1161L64 1067L167 1067L167 1161L195 1161L194.5 961.5L167.5 961.5L167 1043L64 1043L63.5 961.5C43.26 961.07 36.99 961.26 36.51 961.66ZM437.02 961.23C437 961.38 436.88 1006.39 436.75 1061.25L436.5 1161L463 1161L462.99 999.5C467.19 1005.7 475.36 1018.53 483.85 1032C492.35 1045.47 508.94 1071.8 520.73 1090.5C532.51 1109.2 547.26 1132.6 553.5 1142.5L564.85 1160.5L595 1161L595 961L568.98 961L568.5 1122.71C537.91 1072.95 515.59 1036.67 499.17 1010L469.31 961.5C444.31 961.07 437.04 961.07 437.02 961.23Z"
       id="path52"
       style="fill:#4d2b0e;fill-opacity:1" />
  </g>
</svg>
