<?xml version="1.0" standalone="no"?>
<!DOCTYPE svg PUBLIC "-//W3C//DTD SVG 20010904//EN"
 "http://www.w3.org/TR/2001/REC-SVG-20010904/DTD/svg10.dtd">
<svg version="1.0" xmlns="http://www.w3.org/2000/svg"
 width="1191.000000pt" height="1191.000000pt" viewBox="0 0 1191.000000 1191.000000"
 preserveAspectRatio="xMidYMid meet">
<metadata>
Created by potrace 1.14, written by Peter Selinger 2001-2017
</metadata>
<g transform="translate(0.000000,1191.000000) scale(0.100000,-0.100000)"
fill="#000000" stroke="none">
<path d="M5766 11648 c-4 -24 -7 -50 -8 -58 0 -8 -5 -49 -10 -90 -6 -41 -11
-86 -13 -100 -2 -24 -13 -95 -21 -135 -12 -57 -19 -103 -29 -180 -2 -16 -11
-64 -20 -105 -9 -41 -18 -86 -20 -100 -2 -14 -9 -47 -15 -75 -6 -27 -13 -59
-15 -70 -6 -43 -18 -97 -56 -275 -23 -102 -42 -193 -44 -203 -2 -10 -6 -26 -9
-35 -3 -9 -8 -30 -11 -47 -2 -16 -23 -102 -45 -190 -23 -88 -43 -171 -46 -184
-3 -13 -10 -34 -16 -45 -6 -12 -10 -23 -9 -26 5 -11 -122 -437 -140 -473 -7
-12 -11 -22 -9 -22 4 0 -116 -366 -135 -410 -14 -33 -75 -194 -79 -210 -2 -5
-8 -23 -15 -40 -7 -16 -25 -61 -41 -100 -15 -38 -40 -97 -55 -130 -15 -33 -34
-76 -43 -95 -28 -64 -191 -394 -219 -445 -94 -168 -158 -275 -258 -430 -70
-108 -246 -398 -289 -475 -16 -30 -40 -73 -52 -95 -64 -115 -212 -421 -261
-540 -60 -146 -157 -439 -169 -515 -3 -14 -7 -32 -10 -40 -3 -8 -12 -49 -20
-90 -8 -41 -16 -86 -19 -100 -19 -99 -27 -477 -12 -600 16 -122 20 -146 28
-161 4 -9 6 -18 4 -21 -2 -2 0 -21 6 -42 6 -21 12 -46 14 -55 5 -25 64 -199
92 -271 31 -79 126 -272 153 -310 11 -16 20 -33 20 -38 0 -6 3 -12 8 -14 4 -1
23 -25 42 -53 40 -58 50 -70 145 -181 113 -131 230 -234 380 -335 44 -29 82
-56 85 -59 35 -36 474 -238 555 -254 6 -2 41 -12 79 -24 63 -21 81 -25 146
-38 14 -3 32 -7 42 -10 19 -6 119 -23 168 -30 19 -2 49 -7 65 -10 145 -25 569
-25 715 0 14 3 43 7 64 11 21 3 48 7 60 10 12 2 37 7 57 9 20 3 42 8 50 10 8
3 25 8 39 10 14 3 43 10 65 16 22 6 47 12 55 14 34 9 160 50 220 74 390 148
706 369 944 657 80 98 77 94 131 170 61 88 205 369 205 401 0 3 6 20 14 37 33
71 94 300 112 417 17 113 23 405 11 545 -7 86 -33 244 -46 278 -5 14 -8 27 -5
30 2 2 0 15 -5 29 -5 14 -11 38 -14 54 -9 52 -123 387 -177 519 -5 11 -60 126
-123 255 -131 267 -243 466 -413 732 -27 43 -58 93 -69 112 -11 19 -53 87 -94
153 -41 65 -92 150 -113 188 -53 96 -226 443 -267 535 -18 41 -41 93 -51 115
-27 61 -131 327 -135 345 -2 8 -18 51 -34 95 -39 101 -202 591 -208 624 -2 13
-10 39 -18 57 -8 19 -12 34 -9 34 3 0 0 8 -5 18 -6 11 -12 30 -15 43 -3 13
-15 58 -27 99 -19 69 -48 176 -69 260 -5 19 -14 55 -20 80 -14 55 -19 78 -25
110 -3 14 -11 52 -19 85 -8 33 -17 71 -19 85 -3 14 -10 44 -16 68 -7 23 -9 47
-6 52 3 5 1 11 -4 14 -7 5 -17 46 -26 106 -1 8 -5 29 -9 45 -3 17 -8 41 -11
55 -14 75 -34 168 -40 190 -2 9 -18 95 -20 110 -1 8 -5 31 -9 50 -3 19 -8 49
-11 65 -3 17 -12 71 -20 120 -21 121 -23 134 -30 180 -2 22 -7 51 -9 65 -10
50 -18 116 -18 140 1 22 0 23 -7 5 -5 -11 -7 -29 -5 -40 2 -11 6 -67 9 -125 6
-115 11 -174 20 -265 3 -33 7 -85 10 -115 9 -111 26 -260 40 -360 3 -19 7 -48
10 -65 2 -16 6 -50 10 -75 3 -25 8 -58 10 -75 12 -100 17 -143 21 -165 2 -14
7 -41 9 -60 5 -32 20 -133 31 -205 3 -16 7 -37 9 -45 2 -8 6 -33 10 -55 7 -54
14 -95 20 -125 6 -33 45 -229 51 -260 4 -21 14 -62 29 -130 3 -12 22 -99 40
-180 2 -8 15 -62 30 -120 14 -58 28 -113 30 -122 2 -10 15 -59 29 -110 14 -51
32 -118 40 -148 77 -289 211 -690 296 -887 6 -13 14 -33 19 -45 10 -25 80
-184 113 -258 11 -25 55 -115 98 -200 107 -210 373 -747 393 -790 121 -271
261 -695 291 -884 4 -21 8 -41 11 -45 16 -27 24 -405 11 -534 -3 -38 -16 -103
-27 -145 -12 -42 -24 -86 -27 -97 -3 -11 -9 -26 -15 -32 -5 -7 -7 -13 -4 -13
21 0 -166 -346 -205 -381 -10 -9 -18 -20 -18 -25 0 -17 -199 -202 -274 -253
-148 -102 -396 -214 -523 -237 -12 -2 -34 -9 -48 -14 -14 -5 -25 -8 -25 -5 0
2 -15 -1 -32 -6 -18 -5 -44 -11 -58 -13 -87 -14 -118 -19 -140 -21 -48 -5
-145 -14 -185 -17 l-40 -3 -3 1328 -2 1327 400 0 400 0 0 260 0 260 -400 0
-400 0 0 455 0 455 -265 0 -265 0 0 -62 c0 -35 -1 -240 0 -455 l0 -393 -400 0
-400 0 -1 -52 c-1 -65 0 -195 2 -205 1 -4 1 -11 0 -15 -2 -8 -3 -110 -1 -203
l0 -45 400 0 399 0 0 -1325 0 -1324 -57 4 c-151 13 -242 27 -337 51 -33 9 -70
18 -83 20 -117 23 -440 170 -492 224 -3 3 -24 17 -46 32 -49 31 -215 192 -268
259 -125 159 -247 448 -273 649 -9 63 -8 391 0 470 10 87 11 92 43 240 19 87
111 383 147 470 5 14 11 30 12 35 13 55 180 413 361 775 275 552 295 594 381
810 80 199 251 707 267 792 3 13 5 23 6 23 1 0 3 7 5 15 2 8 17 67 34 130 45
167 102 391 107 420 3 14 12 52 20 85 8 33 16 69 19 80 3 11 8 36 11 55 3 19
10 49 15 65 5 17 11 47 15 69 3 21 8 48 10 60 2 11 7 37 10 56 3 19 8 38 9 41
2 3 7 28 11 55 3 27 8 58 10 69 2 11 6 34 9 50 3 17 8 44 12 60 4 17 6 33 5
37 -1 4 3 30 8 57 5 28 12 72 15 98 5 48 12 90 19 128 2 11 7 47 11 80 4 32 8
67 10 75 2 9 6 41 9 71 3 30 8 72 12 94 3 22 7 54 9 70 2 17 6 46 9 65 3 19 8
62 12 95 9 89 11 109 19 173 4 32 8 78 10 103 2 24 6 78 10 119 13 154 26 410
21 410 -2 0 -6 -19 -10 -42z m-1597 -7706 c36 -29 75 -61 86 -70 31 -26 195
-142 201 -142 3 0 13 -8 24 -17 10 -10 36 -27 57 -38 21 -11 40 -22 43 -26 3
-3 28 -19 55 -34 28 -16 52 -33 53 -37 2 -4 8 -8 13 -8 5 0 60 -24 122 -54
115 -55 270 -113 380 -142 61 -16 78 -20 127 -29 14 -3 36 -7 50 -10 14 -3 54
-10 89 -16 36 -5 67 -11 70 -13 3 -2 33 -7 66 -11 32 -3 63 -9 67 -11 27 -17
334 -24 448 -10 107 13 120 14 148 20 15 3 41 8 57 11 17 2 98 18 180 35 83
17 161 34 175 36 92 19 301 102 445 176 44 23 90 47 102 52 13 6 23 14 23 19
0 4 5 7 11 7 6 0 30 14 54 30 24 17 48 30 53 30 6 0 12 3 14 8 2 4 32 27 68
51 85 58 288 212 320 242 58 54 130 110 130 101 0 -22 -86 -117 -265 -292
-231 -227 -358 -328 -524 -413 -99 -52 -264 -124 -300 -132 -9 -2 -47 -13 -86
-25 -68 -21 -234 -61 -305 -74 -19 -3 -46 -8 -60 -11 -13 -3 -42 -7 -65 -10
-22 -3 -51 -8 -65 -10 -94 -17 -347 -23 -485 -11 -62 6 -152 19 -225 32 -14 3
-34 6 -45 8 -61 9 -300 64 -330 76 -11 5 -31 12 -45 16 -56 15 -274 106 -337
140 -138 76 -235 148 -397 298 -216 199 -386 378 -386 408 0 6 28 -14 61 -44
34 -29 91 -77 128 -106z"/>
<path d="M5865 2343 c-16 -2 -70 -13 -120 -24 -498 -116 -763 -618 -670 -1269
23 -160 83 -321 167 -447 36 -53 140 -161 193 -199 22 -16 42 -31 45 -34 3 -3
32 -18 64 -34 54 -25 81 -35 181 -65 68 -21 234 -29 359 -16 225 22 407 121
551 301 38 47 105 161 105 179 0 7 4 15 8 17 8 3 48 121 57 169 6 28 15 78 16
87 4 24 -10 27 -125 27 -69 0 -126 -3 -128 -5 -2 -3 -14 -39 -27 -80 -29 -93
-44 -130 -52 -130 -3 0 -6 -6 -6 -13 0 -21 -68 -118 -119 -170 -53 -54 -182
-122 -260 -136 -27 -5 -101 -8 -164 -6 -115 4 -130 6 -162 19 -9 4 -22 9 -30
10 -37 6 -156 74 -194 112 -48 47 -142 188 -149 224 -1 3 -9 32 -19 65 -10 33
-20 69 -22 80 -2 11 -6 31 -10 45 -3 14 -7 109 -9 211 -3 163 1 216 20 304 11
53 14 64 28 97 9 20 13 39 9 42 -3 3 0 6 6 6 7 0 12 7 12 16 0 31 74 139 139
205 76 76 129 109 232 145 64 22 91 26 200 26 70 1 132 -3 138 -7 7 -4 22 -8
34 -10 63 -10 144 -45 186 -80 94 -79 152 -158 178 -244 9 -31 19 -58 21 -61
2 -3 59 -5 128 -6 121 -1 131 2 124 31 -1 6 -4 26 -7 45 -13 92 -94 251 -169
332 -47 50 -102 98 -114 98 -5 0 -10 3 -10 8 0 22 -200 104 -298 122 -60 11
-277 19 -337 13z"/>
<path d="M3147 2286 c-8 -20 -10 -458 -7 -1728 l0 -258 140 0 139 0 3 181 c2
100 1 185 -2 189 -3 4 -4 134 -2 289 l3 281 514 0 515 0 0 -470 0 -470 140 0
141 0 -5 998 c-2 548 -4 997 -5 997 -39 4 -252 -3 -258 -8 -7 -8 -10 -141 -12
-649 l-1 -158 -515 0 -515 0 -1 138 c0 75 -1 259 -2 407 l-3 270 -131 1 c-92
1 -133 -2 -136 -10z"/>
<path d="M7149 2003 c0 -164 -1 -613 -2 -998 l-2 -700 132 -3 133 -3 2 808 c2
513 6 801 12 788 6 -10 36 -59 68 -107 32 -48 58 -90 58 -93 0 -3 5 -11 11
-18 5 -7 19 -25 29 -42 11 -16 25 -39 32 -49 49 -74 118 -187 118 -191 0 -3 5
-11 10 -18 13 -16 38 -54 135 -209 44 -71 97 -154 118 -185 20 -32 40 -66 43
-76 4 -9 10 -17 15 -17 5 0 9 -4 9 -9 0 -5 18 -37 40 -70 22 -33 40 -63 40
-66 0 -3 15 -27 33 -53 18 -26 36 -54 40 -62 4 -8 43 -71 87 -138 44 -68 80
-126 80 -128 0 -3 9 -17 20 -32 l20 -27 150 -3 150 -3 0 1001 0 1000 -130 0
-130 0 0 -157 c-4 -1121 -6 -1443 -10 -1443 -5 0 -102 154 -109 174 -2 6 -7
13 -11 16 -4 3 -29 42 -56 86 -116 193 -139 229 -144 234 -4 3 -9 12 -13 20
-4 8 -17 31 -29 52 -13 20 -54 87 -92 150 -38 62 -77 124 -87 138 -9 14 -110
178 -224 365 -114 187 -213 345 -221 351 -8 6 -75 11 -169 13 l-155 2 -1 -298z"/>
</g>
</svg>
